<?xml version="1.0" encoding="UTF-8"?>
<svg width="24px" height="24px" viewBox="0 0 24 24" version="1.1" xmlns="http://www.w3.org/2000/svg" xmlns:xlink="http://www.w3.org/1999/xlink">
    <title>icon/24px/Change Password</title>
    <g id="页面-1" stroke="none" stroke-width="1" fill="none" fill-rule="evenodd">
        <g id="Address" transform="translate(-38.000000, -316.000000)">
            <g id="编组-2" transform="translate(16.000000, 297.000000)">
                <g id="编组" transform="translate(14.000000, 11.000000)">
                    <g id="icon/24px/Change-Password" transform="translate(8.000000, 8.000000)">
                        <rect id="矩形" x="0" y="0" width="24" height="24"></rect>
                        <path d="M7.6,10.2 L19.3,10.2 C19.79707,10.2 20.2,10.60293 20.2,11.1 L20.2,20.1 C20.2,20.59707 19.79707,21 19.3,21 L4.9,21 C4.402948,21 4,20.59707 4,20.1 L4,11.1 C4,10.60293 4.402948,10.2 4.9,10.2 L5.8,10.2 L5.8,9.3 C5.8,5.820609 8.620609,3 12.1,3 C14.56645,3 16.70179,4.41732 17.73616,6.481938 L16.12579,7.287096 C15.38698,5.812374 13.86175,4.8 12.1,4.8 C9.614722,4.8 7.6,6.814722 7.6,9.3 L7.6,10.2 Z M5.8,12 L5.8,19.2 L18.4,19.2 L18.4,12 L5.8,12 Z M10.3,14.7 L13.9,14.7 L13.9,16.5 L10.3,16.5 L10.3,14.7 Z" id="形状" fill="#0A2463" fill-rule="nonzero"></path>
                    </g>
                </g>
            </g>
        </g>
    </g>
</svg>