<?xml version="1.0" encoding="UTF-8"?>
<svg width="20px" height="20px" viewBox="0 0 20 20" version="1.1" xmlns="http://www.w3.org/2000/svg" xmlns:xlink="http://www.w3.org/1999/xlink">
    <title>icon/20px/Copy</title>
    <g id="页面-1" stroke="none" stroke-width="1" fill="none" fill-rule="evenodd">
        <g id="Create-Wallet-1" transform="translate(-16.000000, -151.000000)" fill="#0A2463" fill-rule="nonzero">
            <g id="icon/20px/Copy" transform="translate(16.000000, 151.000000)">
                <path d="M6.79986,5.8 L6.79986,3.7 C6.79986,3.313404 7.113264,3 7.49986,3 L15.89986,3 C16.28647,3 16.59986,3.313404 16.59986,3.7 L16.59986,13.5 C16.59986,13.88661 16.28647,14.2 15.89986,14.2 L13.79986,14.2 L13.79986,16.29937 C13.79986,16.68633 13.48493,17 13.0951,17 L4.704662,17 C4.315413,17 4,16.68878 4,16.29937 L4.00182,6.500609 C4.00189,6.113677 4.316848,5.8 4.706594,5.8 L6.79986,5.8 Z M5.401694,7.2 L5.400133,15.6 L12.39986,15.6 L12.39986,7.2 L5.401694,7.2 Z M8.19986,5.8 L13.79986,5.8 L13.79986,12.8 L15.19986,12.8 L15.19986,4.4 L8.19986,4.4 L8.19986,5.8 Z" id="形状"></path>
            </g>
        </g>
    </g>
</svg>