<?xml version="1.0" encoding="UTF-8"?>
<svg width="24px" height="24px" viewBox="0 0 24 24" version="1.1" xmlns="http://www.w3.org/2000/svg" xmlns:xlink="http://www.w3.org/1999/xlink">
    <title>icon/24px/My Contacts</title>
    <g id="页面-1" stroke="none" stroke-width="1" fill="none" fill-rule="evenodd">
        <g id="Address" transform="translate(-38.000000, -94.000000)">
            <g id="编组-2" transform="translate(16.000000, 75.000000)">
                <g id="编组-3" transform="translate(14.000000, 11.000000)">
                    <g id="icon/24px/My-Contacts" transform="translate(8.000000, 8.000000)">
                        <rect id="矩形" x="0" y="0" width="24" height="24"></rect>
                        <path d="M19.3,21 L6.7,21 C5.208835,21 4,19.79121 4,18.3 L4,5.7 C4,4.208835 5.208835,3 6.7,3 L19.3,3 C19.79707,3 20.2,3.402948 20.2,3.9 L20.2,20.1 C20.2,20.59707 19.79707,21 19.3,21 Z M18.4,19.2 L18.4,17.4 L6.7,17.4 C6.202948,17.4 5.8,17.80293 5.8,18.3 C5.8,18.79707 6.202948,19.2 6.7,19.2 L18.4,19.2 Z M5.8,15.75363 C6.081502,15.65418 6.384424,15.6 6.7,15.6 L18.4,15.6 L18.4,4.8 L6.7,4.8 C6.202948,4.8 5.8,5.202948 5.8,5.7 L5.8,15.75363 Z M12.1,10.2 C11.10586,10.2 10.3,9.394113 10.3,8.4 C10.3,7.405887 11.10586,6.6 12.1,6.6 C13.09414,6.6 13.9,7.405887 13.9,8.4 C13.9,9.394113 13.09414,10.2 12.1,10.2 Z M9.4,13.8 C9.4,12.30879 10.60879,11.1 12.1,11.1 C13.59121,11.1 14.8,12.30879 14.8,13.8 L9.4,13.8 Z" id="形状" fill="#0A2463" fill-rule="nonzero"></path>
                    </g>
                </g>
            </g>
        </g>
    </g>
</svg>