<svg t="1750062840183" class="icon" viewBox="0 0 1024 1024" version="1.1" xmlns="http://www.w3.org/2000/svg" p-id="8567" width="32" height="32"><path d="M512 0c-32.64 0-58.453333 5.376-78.634667 15.36a233.130667 233.130667 0 0 0-19.968 11.392L409.173333 29.44a359.978667 359.978667 0 0 1-11.52 7.04C388.096 41.984 384.426667 42.581333 384 42.666667a85.333333 85.333333 0 0 0-85.333333 85.333333H256a128 128 0 0 0-128 128v597.333333a128 128 0 0 0 128 128h512a128 128 0 0 0 128-128V256a128 128 0 0 0-128-128h-42.666667a85.333333 85.333333 0 0 0-85.333333-85.333333c-0.341333-0.042667-4.053333-0.64-13.653333-6.229334-3.754667-2.133333-7.296-4.394667-11.52-7.04L610.56 26.752a233.557333 233.557333 0 0 0-19.968-11.434667C570.496 5.376 544.64 0 512 0z m201.898667 213.333333H768a42.666667 42.666667 0 0 1 42.666667 42.666667v597.333333a42.666667 42.666667 0 0 1-42.666667 42.666667H256a42.666667 42.666667 0 0 1-42.666667-42.666667V256a42.666667 42.666667 0 0 1 42.666667-42.666667h54.101333A85.333333 85.333333 0 0 0 384 256h256a85.333333 85.333333 0 0 0 73.898667-42.666667z m-242.773334-121.514666c5.12-2.517333 17.066667-6.485333 40.874667-6.485334 23.765333 0 35.712 3.968 40.832 6.485334 3.242667 1.621333 7.125333 3.882667 12.586667 7.296l3.157333 2.005333c4.437333 2.773333 9.813333 6.144 15.018667 9.173333 12.501333 7.253333 32.64 17.706667 56.405333 17.706667v42.666667H384V128c23.765333 0 43.904-10.453333 56.405333-17.706667 5.248-2.986667 10.581333-6.4 15.018667-9.173333l3.157333-2.005333c5.461333-3.413333 9.386667-5.674667 12.586667-7.253334z" p-id="8568" fill="#0A2463"></path></svg>