<?xml version="1.0" encoding="UTF-8"?>
<svg width="131px" height="120px" viewBox="0 0 131 120" version="1.1" xmlns="http://www.w3.org/2000/svg" xmlns:xlink="http://www.w3.org/1999/xlink">
    <title>图-密码</title>
    <g id="页面-1" stroke="none" stroke-width="1" fill="none" fill-rule="evenodd">
        <g id="切图" transform="translate(-114.000000, -400.000000)">
            <g id="图-密码" transform="translate(115.000000, 400.000000)">
                <g id="accesories" fill="#81FFDF">
                    <circle id="Oval" opacity="0.300000012" cx="113" cy="79.7692308" r="17"></circle>
                    <circle id="Oval" opacity="0.699999988" cx="8.76923077" cy="111.230769" r="8.76923077"></circle>
                    <circle id="Oval" opacity="0.699999988" cx="102" cy="26.3076923" r="6.92307692"></circle>
                    <circle id="Oval" opacity="0.600000024" cx="24.9230769" cy="6.46153846" r="6.46153846"></circle>
                </g>
                <path d="M85.7133441,52.9418993 L85.7133441,45.2987056 C85.7133441,33.0288065 75.2225947,23.0769231 62.2758202,23.0769231 C49.3292911,23.0769231 38.8385417,33.0287247 38.8385417,45.2987056 L38.8385417,52.8146886 C33.1229783,53.2062193 28.6153846,57.7270659 28.6153846,63.2469457 L28.6153846,92.0050663 C28.6153846,97.7783858 33.5524677,102.461538 39.6445093,102.461538 L83.8132829,102.461538 C89.9053244,102.461538 94.8424076,97.7783858 94.8424076,92.0050663 L94.8424076,63.2469457 C94.8424076,58.0844011 90.8996129,53.7958878 85.7133441,52.9418993 Z M67.1659459,79.7401574 L67.1659459,89.4246939 L58.8935706,89.4246939 L58.8935706,79.8957553 C56.1234048,78.5293246 54.2324242,75.7832101 54.2324242,72.617914 C54.2324242,68.0895412 58.1013467,64.4189201 62.8791506,64.4189201 C67.6570363,64.4189201 71.5261225,68.0894594 71.5261225,72.617914 C71.5261225,75.6671252 69.7712695,78.327669 67.1659459,79.7401574 Z M78.2812956,52.7867104 L46.1886192,52.7867104 L46.1886192,46.6603916 C46.1886192,38.2590059 53.3707457,31.4430497 62.2371253,31.4430497 C71.0947514,31.4430497 78.2812956,38.259006 78.2812956,46.6603916 L78.2812956,52.7867104 L78.2812956,52.7867104 Z" id="形状" fill="#0FE4AD" fill-rule="nonzero" transform="translate(61.728896, 62.769231) rotate(26.000000) translate(-61.728896, -62.769231) "></path>
                <path d="M91.2518057,52.0188224 L91.2518057,44.3756287 C91.2518057,32.1057295 80.7610562,22.1538462 67.8142817,22.1538462 C54.8677527,22.1538462 44.3770032,32.1056478 44.3770032,44.3756287 L44.3770032,51.8916117 C38.6614398,52.2831424 34.1538462,56.803989 34.1538462,62.3238688 L34.1538462,91.0819894 C34.1538462,96.8553089 39.0909293,101.538462 45.1829708,101.538462 L89.3517445,101.538462 C95.443786,101.538462 100.380869,96.8553089 100.380869,91.0819894 L100.380869,62.3238688 C100.380869,57.1613242 96.4380745,52.8728109 91.2518057,52.0188224 Z M72.7044074,78.8170805 L72.7044074,88.501617 L64.4320321,88.501617 L64.4320321,78.9726784 C61.6618663,77.6062476 59.7708858,74.8601332 59.7708858,71.6948371 C59.7708858,67.1664643 63.6398082,63.4958432 68.4176122,63.4958432 C73.1954979,63.4958432 77.064584,67.1663825 77.064584,71.6948371 C77.064584,74.7440483 75.3097311,77.4045921 72.7044074,78.8170805 Z M83.8197572,51.8636335 L51.7270807,51.8636335 L51.7270807,45.7373147 C51.7270807,37.335929 58.9092073,30.5199728 67.7755868,30.5199728 C76.633213,30.5199728 83.8197572,37.335929 83.8197572,45.7373147 L83.8197572,51.8636335 L83.8197572,51.8636335 Z" id="形状" fill="#000000" fill-rule="nonzero" transform="translate(67.267358, 61.846154) rotate(26.000000) translate(-67.267358, -61.846154) "></path>
                <path d="M37.7224174,44.9827291 C14.1622658,46.969535 1.97162148,52.4398771 1.97162148,60.4172212 C1.97162148,69.9584567 26.7681584,77.6931563 57.3562369,77.6931563 C87.9443153,77.6931563 112.740852,69.9584567 112.740852,60.4172212 C112.740852,54.5917528 107.42371,48.1243412 93.2620109,44.9950234" id="Oval-2" stroke="#81FFDF" stroke-width="2" stroke-linecap="round" stroke-linejoin="round" stroke-dasharray="6" transform="translate(57.356237, 61.337943) rotate(27.000000) translate(-57.356237, -61.337943) "></path>
            </g>
        </g>
    </g>
</svg>