<?xml version="1.0" encoding="UTF-8"?>
<svg width="18px" height="18px" viewBox="0 0 18 18" version="1.1" xmlns="http://www.w3.org/2000/svg" xmlns:xlink="http://www.w3.org/1999/xlink">
    <title>icon/18px/Minted</title>
    <g id="页面-1" stroke="none" stroke-width="1" fill="none" fill-rule="evenodd">
        <g id="Token-1" transform="translate(-16.000000, -368.000000)" fill="#0A2463" fill-rule="nonzero">
            <g id="List-1" transform="translate(0.000000, 347.000000)">
                <g id="icon/18px/Minted" transform="translate(16.000000, 21.000000)">
                    <path d="M9,15.999951 C5.13400887,15.999951 2,12.8659841 2,8.999958 C2,5.13400187 5.13400887,2 9,2 C12.8659631,2 16,5.13400187 16,8.999958 C16,12.8659841 12.8659631,15.999951 9,15.999951 Z M9.000007,14.5999524 C12.0928139,14.5999524 14.6000014,12.0927649 14.6000014,8.999958 C14.6000014,5.90720009 12.0928139,3.3999986 9.000007,3.3999986 C5.90720009,3.3999986 3.3999986,5.90720009 3.3999986,8.999958 C3.3999986,12.0927649 5.90720009,14.5999524 9.000007,14.5999524 Z M6.8999951,6.1999958 L11.1000049,6.1999958 L12.8500031,8.64995835 L8.999447,12.4999545 L5.14999685,8.64995835 L6.8999951,6.1999958 Z M7.62100838,7.5999594 L6.97699502,8.5029585 L8.999447,10.5259565 L11.023005,8.5029585 L10.3790056,7.5999594 L7.62100838,7.5999594 Z" id="形状"></path>
                </g>
            </g>
        </g>
    </g>
</svg>