<?xml version="1.0" encoding="UTF-8"?>
<svg width="24px" height="24px" viewBox="0 0 24 24" version="1.1" xmlns="http://www.w3.org/2000/svg" xmlns:xlink="http://www.w3.org/1999/xlink">
    <title>icon/24px/Network</title>
    <g id="页面-1" stroke="none" stroke-width="1" fill="none" fill-rule="evenodd">
        <g id="Address" transform="translate(-38.000000, -242.000000)">
            <g id="编组-2" transform="translate(16.000000, 223.000000)">
                <g transform="translate(14.000000, 11.000000)" id="icon/24px/Network">
                    <g transform="translate(8.000000, 8.000000)">
                        <rect id="矩形" x="0" y="0" width="24" height="24"></rect>
                        <path d="M12,21 C7.029435,21 3,16.97052 3,12 C3,7.029435 7.029435,3 12,3 C16.97052,3 21,7.029435 21,12 C21,16.97052 16.97052,21 12,21 Z M9.939018,18.90066 C9.072687,17.06331 8.541588,15.03678 8.424579,12.9 L4.855701,12.9 C5.2122,15.75885 7.244751,18.09723 9.939018,18.90066 Z M10.22763,12.9 C10.36299,15.09492 10.99002,17.15673 12,18.9768 C13.00998,17.15673 13.63701,15.09492 13.77237,12.9 L10.22763,12.9 Z M19.14429,12.9 L15.57543,12.9 C15.45843,15.03678 14.92734,17.06331 14.061,18.90066 C16.75524,18.09723 18.7878,15.75885 19.14429,12.9 Z M4.855701,11.1 L8.424579,11.1 C8.541588,8.963193 9.072687,6.936663 9.939018,5.099304 C7.244751,5.902797 5.2122,8.24115 4.855701,11.1 Z M10.22763,11.1 L13.77237,11.1 C13.63701,8.905098 13.00998,6.843225 12,5.023191 C10.99002,6.843225 10.36299,8.905098 10.22763,11.1 Z M14.061,5.099304 C14.92734,6.936663 15.45843,8.963193 15.57543,11.1 L19.14429,11.1 C18.7878,8.24115 16.75524,5.902797 14.061,5.099304 Z" id="形状" fill="#0A2463" fill-rule="nonzero"></path>
                    </g>
                </g>
            </g>
        </g>
    </g>
</svg>