<?xml version="1.0" encoding="UTF-8"?>
<svg width="18px" height="18px" viewBox="0 0 18 18" version="1.1" xmlns="http://www.w3.org/2000/svg" xmlns:xlink="http://www.w3.org/1999/xlink">
    <title>icon/18px/add</title>
    <g id="页面-1" stroke="none" stroke-width="1" fill="none" fill-rule="evenodd">
        <g id="Switch-Wallet" transform="translate(-326.000000, -19.000000)" fill="#0A2463" fill-rule="nonzero">
            <g id="icon/18px/add" transform="translate(326.000000, 19.000000)">
                <path d="M8.2,8.2 L8.2,5 L9.8,5 L9.8,8.2 L13,8.2 L13,9.8 L9.8,9.8 L9.8,13 L8.2,13 L8.2,9.8 L5,9.8 L5,8.2 L8.2,8.2 Z M9,17 C4.58172,17 1,13.41824 1,9 C1,4.58172 4.58172,1 9,1 C13.41824,1 17,4.58172 17,9 C17,13.41824 13.41824,17 9,17 Z M9,15.4 C12.53464,15.4 15.4,12.53464 15.4,9 C15.4,5.465376 12.53464,2.6 9,2.6 C5.465376,2.6 2.6,5.465376 2.6,9 C2.6,12.53464 5.465376,15.4 9,15.4 Z" id="形状"></path>
            </g>
        </g>
    </g>
</svg>