<?xml version="1.0" encoding="UTF-8"?>
<svg width="233px" height="173px" viewBox="0 0 233 173" version="1.1" xmlns="http://www.w3.org/2000/svg" xmlns:xlink="http://www.w3.org/1999/xlink">
    <title>图-钱包</title>
    <defs>
        <path d="M80.0679117,33.4192106 L20.6869531,51.2499537 C19.6408515,51.5673104 18.5359801,50.9678589 18.2186235,49.9217573 L9.34439075,20.3840794 C9.02703409,19.3379778 9.62648557,18.2331064 10.6725872,17.9157497 L70.0535458,0.0850066206 C71.0996474,-0.232350046 72.2045187,0.367101436 72.5218754,1.41320304 L81.3961081,30.950881 C81.7134648,31.9969826 81.1257673,33.1018539 80.0679117,33.4192106 Z" id="path-1"></path>
        <filter x="-4.2%" y="-5.8%" width="111.1%" height="115.6%" filterUnits="objectBoundingBox" id="filter-2">
            <feMorphology radius="2" operator="dilate" in="SourceAlpha" result="shadowSpreadOuter1"></feMorphology>
            <feOffset dx="2" dy="2" in="shadowSpreadOuter1" result="shadowOffsetOuter1"></feOffset>
            <feComposite in="shadowOffsetOuter1" in2="SourceAlpha" operator="out" result="shadowOffsetOuter1"></feComposite>
            <feColorMatrix values="0 0 0 0 0   0 0 0 0 0   0 0 0 0 0  0 0 0 1 0" type="matrix" in="shadowOffsetOuter1"></feColorMatrix>
        </filter>
        <path d="M82.0543294,80.6936001 L8.69792347,80.6936001 C3.89055766,80.6936001 4.83318927e-14,76.8030424 4.83318927e-14,71.9956766 L4.83318927e-14,25.6263413 C4.83318927e-14,20.8189755 3.89055766,16.9284179 8.69792347,16.9284179 L82.0543294,16.9284179 C86.8616952,16.9284179 90.7522528,20.8189755 90.7522528,25.6263413 L90.7522528,71.9956766 C90.7522528,76.7912885 86.8616952,80.6936001 82.0543294,80.6936001 Z" id="path-3"></path>
        <filter x="-3.0%" y="-4.3%" width="107.7%" height="111.0%" filterUnits="objectBoundingBox" id="filter-4">
            <feMorphology radius="2" operator="dilate" in="SourceAlpha" result="shadowSpreadOuter1"></feMorphology>
            <feOffset dx="1.5" dy="1.5" in="shadowSpreadOuter1" result="shadowOffsetOuter1"></feOffset>
            <feComposite in="shadowOffsetOuter1" in2="SourceAlpha" operator="out" result="shadowOffsetOuter1"></feComposite>
            <feColorMatrix values="0 0 0 0 0   0 0 0 0 0   0 0 0 0 0  0 0 0 1 0" type="matrix" in="shadowOffsetOuter1"></feColorMatrix>
        </filter>
        <path d="M88.0018284,56.8448342 L74.0028732,56.8448342 C69.5716338,56.8448342 65.9749249,53.2481253 65.9749249,48.8168859 C65.9749249,44.3856466 69.5716338,40.7889377 74.0028732,40.7889377 L88.0018284,40.7889377 C92.4330678,40.7889377 96.0297767,44.3856466 96.0297767,48.8168859 C96.0297767,53.2481253 92.4330678,56.8448342 88.0018284,56.8448342 Z" id="path-5"></path>
        <filter x="-6.7%" y="-12.5%" width="116.6%" height="131.1%" filterUnits="objectBoundingBox" id="filter-6">
            <feMorphology radius="1.5" operator="dilate" in="SourceAlpha" result="shadowSpreadOuter1"></feMorphology>
            <feOffset dx="1" dy="1" in="shadowSpreadOuter1" result="shadowOffsetOuter1"></feOffset>
            <feComposite in="shadowOffsetOuter1" in2="SourceAlpha" operator="out" result="shadowOffsetOuter1"></feComposite>
            <feColorMatrix values="0 0 0 0 0   0 0 0 0 0   0 0 0 0 0  0 0 0 1 0" type="matrix" in="shadowOffsetOuter1"></feColorMatrix>
        </filter>
    </defs>
    <g id="页面-1" stroke="none" stroke-width="1" fill="none" fill-rule="evenodd">
        <g id="切图" transform="translate(-63.000000, -197.000000)">
            <g id="图-钱包" transform="translate(63.999994, 197.590287)">
                <g id="accesories" transform="translate(60.618711, 7.893584)" fill="#81FFDF">
                    <circle id="Oval" opacity="0.300000012" cx="128.449132" cy="109.466501" r="23.4119107"></circle>
                    <circle id="Oval" opacity="0.699999988" cx="19.6153846" cy="152.493797" r="12.0223325"></circle>
                    <circle id="Oval" opacity="0.699999988" cx="114.528536" cy="36.0669975" r="9.49131514"></circle>
                    <circle id="Oval" opacity="0.600000024" cx="8.85856079" cy="8.85856079" r="8.85856079"></circle>
                </g>
                <rect id="矩形" x="69.4772714" y="24.3451967" width="108.833747" height="108.833747" rx="12"></rect>
                <g id="钱包-(1)" transform="translate(123.894145, 75.895471) rotate(-25.000000) translate(-123.894145, -75.895471) translate(75.879256, 35.548671)">
                    <g id="路径">
                        <use fill="black" fill-opacity="1" filter="url(#filter-2)" xlink:href="#path-1"></use>
                        <path stroke="#020100" stroke-width="2" d="M69.76324,-0.871927308 C70.5505352,-1.11076967 71.3601042,-1.00587099 72.0329595,-0.643810756 C72.7050541,-0.282159838 73.2401762,0.336291841 73.4795862,1.12547058 L73.4795862,1.12547058 L82.3530421,30.6605752 C82.5925102,31.449933 82.4892823,32.2613651 82.1269304,32.9347624 C81.766501,33.604587 81.1494417,34.1387823 80.3555031,34.3769638 L80.3555031,34.3769638 L20.9772589,52.2068877 C20.1899637,52.44573 19.3803947,52.3408313 18.7075394,51.9787711 C18.0354448,51.6171202 17.5003227,50.9986685 17.2609127,50.2094898 L17.2609127,50.2094898 L8.38745683,20.6743852 C8.14861446,19.88709 8.25351314,19.077521 8.61557338,18.4046657 C8.97722429,17.732571 9.59567597,17.1974489 10.3849958,16.9579965 L10.3849958,16.9579965 Z" fill="#22F6BF" fill-rule="evenodd"></path>
                    </g>
                    <g id="路径">
                        <use fill="black" fill-opacity="1" filter="url(#filter-4)" xlink:href="#path-3"></use>
                        <path stroke="#020100" stroke-width="2" d="M82.0543294,15.9284179 C84.7343636,15.9284179 87.1587279,17.0130784 88.9131601,18.7675107 C90.6675923,20.5219429 91.7522528,22.9463071 91.7522528,25.6263413 L91.7522528,25.6263413 L91.7522528,71.9956766 C91.7522528,74.6707508 90.6666413,77.0966196 88.9102704,78.8529906 C87.1560075,80.6072535 84.7327671,81.6936001 82.0543294,81.6936001 L82.0543294,81.6936001 L8.69792347,81.6936001 C6.01788921,81.6936001 3.59352499,80.6089395 1.83909277,78.8545073 C0.0846605624,77.1000751 -1,74.6757109 -1,71.9956766 L-1,71.9956766 L-1,25.6263413 C-1,22.9463071 0.0846605624,20.5219429 1.83909277,18.7675107 C3.59352499,17.0130784 6.01788921,15.9284179 8.69792347,15.9284179 L8.69792347,15.9284179 Z" fill="#000000" fill-rule="evenodd"></path>
                    </g>
                    <path d="M1.08293772,28.8663913 L72.0286094,28.8663913 C76.4468874,28.8663913 80.0286094,32.4481133 80.0286094,36.8663913 L80.0286094,62.4481955 C80.0286094,66.8664735 76.4468874,70.4481955 72.0286094,70.4481955 L3.31073465e-12,70.4481955 L3.31073465e-12,70.4481955" id="路径-2" stroke="#22F6BF" stroke-width="3" stroke-linecap="round" stroke-linejoin="round" stroke-dasharray="4,6"></path>
                    <g id="路径">
                        <use fill="black" fill-opacity="1" filter="url(#filter-6)" xlink:href="#path-5"></use>
                        <path stroke="#020100" stroke-width="1.5" d="M88.0018284,40.0389377 C90.4244393,40.0389377 92.6189909,41.0220104 94.2078474,42.6108669 C95.7967039,44.1997235 96.7797767,46.394275 96.7797767,48.8168859 C96.7797767,51.2394969 95.7967039,53.4340484 94.2078474,55.0229049 C92.6189909,56.6117615 90.4244393,57.5948342 88.0018284,57.5948342 L88.0018284,57.5948342 L74.0028732,57.5948342 C71.5802623,57.5948342 69.3857107,56.6117615 67.7968542,55.0229049 C66.2079977,53.4340484 65.2249249,51.2394969 65.2249249,48.8168859 C65.2249249,46.394275 66.2079977,44.1997235 67.7968542,42.6108669 C69.3857107,41.0220104 71.5802623,40.0389377 74.0028732,40.0389377 L74.0028732,40.0389377 Z" fill="#22F6BF" fill-rule="evenodd"></path>
                    </g>
                    <path d="M70.5119498,48.805132 C70.5119498,50.8759293 72.1906628,52.5546422 74.2614601,52.5546422 C76.3322574,52.5546422 78.0109704,50.8759293 78.0109704,48.805132 C78.0109704,46.7343347 76.3322574,45.0556217 74.2614601,45.0556217 C72.1906628,45.0556217 70.5119498,46.7343347 70.5119498,48.805132 L70.5119498,48.805132 Z" id="路径" fill="#000000" fill-rule="nonzero"></path>
                </g>
                <path d="M81.6984158,69.5299749 C44.3268881,72.6814814 24.9898732,81.3586344 24.9898732,94.0124383 C24.9898732,109.146914 64.3225771,121.415831 112.841926,121.415831 C161.361275,121.415831 200.693979,109.146914 200.693979,94.0124383 C200.693979,84.7719776 192.259835,74.5132554 169.796298,69.5494764" id="Oval-2" stroke="#81FFDF" stroke-width="2" stroke-linecap="round" stroke-linejoin="round" stroke-dasharray="6" transform="translate(112.841926, 95.472903) rotate(27.000000) translate(-112.841926, -95.472903) "></path>
                <g id="编组-2" transform="translate(0.000000, 107.409713)" fill="#000000" stroke="#FFFFFF" stroke-width="0.5">
                    <g id="编组" transform="translate(0.000000, 16.000000)">
                        <path d="M39.6561598,9.07766188 L39.6908211,9.10230416 C39.8969404,10.5436161 40,11.5095147 40,12 C40,17.5228475 31.0457014,22 20,22 C8.95431141,22 0,17.6009162 0,12 C0,11.106889 0.106340914,10.1409904 0.319022743,9.10230416 C0.328368824,9.09583134 0.337714388,9.08936294 0.347059437,9.08289897 C2.09103261,13.0207949 10.2268952,16 20.0000064,16 C29.7772763,16 37.915904,13.0182589 39.6561598,9.07766188 Z" id="形状结合"></path>
                        <ellipse id="椭圆形" cx="20.0000064" cy="8.5" rx="20" ry="8.5"></ellipse>
                    </g>
                    <g id="编组" transform="translate(2.000000, 9.000000)">
                        <path d="M39.6561598,9.07766188 L39.6908211,9.10230416 C39.8969404,10.5436161 40,11.5095147 40,12 C40,17.5228475 31.0457014,22 20,22 C8.95431141,22 0,17.6009162 0,12 C0,11.106889 0.106340914,10.1409904 0.319022743,9.10230416 C0.328368824,9.09583134 0.337714388,9.08936294 0.347059437,9.08289897 C2.09103261,13.0207949 10.2268952,16 20.0000064,16 C29.7772763,16 37.915904,13.0182589 39.6561598,9.07766188 Z" id="形状结合"></path>
                        <ellipse id="椭圆形" cx="20.0000064" cy="8.5" rx="20" ry="8.5"></ellipse>
                    </g>
                    <g id="编组" transform="translate(10.000000, 0.000000)">
                        <path d="M39.6561598,9.07766188 L39.6908211,9.10230416 C39.8969404,10.5436161 40,11.5095147 40,12 C40,17.5228475 31.0457014,22 20,22 C8.95431141,22 0,17.6009162 0,12 C0,11.106889 0.106340914,10.1409904 0.319022743,9.10230416 C0.328368824,9.09583134 0.337714388,9.08936294 0.347059437,9.08289897 C2.09103261,13.0207949 10.2268952,16 20.0000064,16 C29.7772763,16 37.915904,13.0182589 39.6561598,9.07766188 Z" id="形状结合"></path>
                        <ellipse id="椭圆形" cx="20.0000064" cy="8.5" rx="20" ry="8.5"></ellipse>
                    </g>
                </g>
                <path d="M208.500006,0 C208.078731,8.77630761 206.210903,15.2950255 202.896521,19.5561536 C199.58214,23.8172818 193.762278,25.9332995 185.436933,25.9042067 C193.684377,26.188978 199.50424,28.3787715 202.896521,32.4735874 C206.288803,36.5684033 208.156631,42.2101077 208.500006,49.3987007 C208.500006,41.9985785 210.228598,36.356874 213.685782,32.4735874 C217.142966,28.5903008 223.247708,26.4005072 232.000006,25.9042067 C223.247708,25.8233987 217.142966,23.707381 213.685782,19.5561536 C210.228598,15.4049263 208.500006,8.88620838 208.500006,0 Z" id="路径-3" fill="#000000"></path>
            </g>
        </g>
    </g>
</svg>