<?xml version="1.0" encoding="UTF-8"?>
<svg width="24px" height="24px" viewBox="0 0 24 24" version="1.1" xmlns="http://www.w3.org/2000/svg" xmlns:xlink="http://www.w3.org/1999/xlink">
    <title>icon/24px/Tools</title>
    <g id="页面-1" stroke="none" stroke-width="1" fill="none" fill-rule="evenodd">
        <g id="切图" transform="translate(-618.000000, -198.000000)">
            <g id="icon/24px/Tools" transform="translate(618.000000, 198.000000)">
                <rect id="矩形" x="0" y="0" width="24" height="24"></rect>
                <path d="M7.02631579,3 C9.24998842,3 11.0526316,4.80264316 11.0526316,7.02631579 L11.0526316,11.0526316 L7.02631579,11.0526316 C4.80264316,11.0526316 3,9.24998842 3,7.02631579 C3,4.80264316 4.80264316,3 7.02631579,3 Z M9.15789474,9.15789474 L9.15789474,7.02631579 C9.15789474,5.84907789 8.20355368,4.89473684 7.02631579,4.89473684 C5.84907789,4.89473684 4.89473684,5.84907789 4.89473684,7.02631579 C4.89473684,8.20355368 5.84907789,9.15789474 7.02631579,9.15789474 L9.15789474,9.15789474 Z M7.02631579,12.9473684 L11.0526316,12.9473684 L11.0526316,16.9736842 C11.0526316,19.1973474 9.24998842,21 7.02631579,21 C4.80264316,21 3,19.1973474 3,16.9736842 C3,14.7500211 4.80264316,12.9473684 7.02631579,12.9473684 Z M7.02631579,14.8421053 C5.84907789,14.8421053 4.89473684,15.7964842 4.89473684,16.9736842 C4.89473684,18.1508842 5.84907789,19.1052632 7.02631579,19.1052632 C8.20355368,19.1052632 9.15789474,18.1508842 9.15789474,16.9736842 L9.15789474,14.8421053 L7.02631579,14.8421053 Z M16.9736842,3 C19.1973474,3 21,4.80264316 21,7.02631579 C21,9.24998842 19.1973474,11.0526316 16.9736842,11.0526316 L12.9473684,11.0526316 L12.9473684,7.02631579 C12.9473684,4.80264316 14.7500211,3 16.9736842,3 Z M16.9736842,9.15789474 C18.1508842,9.15789474 19.1052632,8.20355368 19.1052632,7.02631579 C19.1052632,5.84907789 18.1508842,4.89473684 16.9736842,4.89473684 C15.7964842,4.89473684 14.8421053,5.84907789 14.8421053,7.02631579 L14.8421053,9.15789474 L16.9736842,9.15789474 Z M12.9473684,12.9473684 L16.9736842,12.9473684 C19.1973474,12.9473684 21,14.7500211 21,16.9736842 C21,19.1973474 19.1973474,21 16.9736842,21 C14.7500211,21 12.9473684,19.1973474 12.9473684,16.9736842 L12.9473684,12.9473684 Z M14.8421053,14.8421053 L14.8421053,16.9736842 C14.8421053,18.1508842 15.7964842,19.1052632 16.9736842,19.1052632 C18.1508842,19.1052632 19.1052632,18.1508842 19.1052632,16.9736842 C19.1052632,15.7964842 18.1508842,14.8421053 16.9736842,14.8421053 L14.8421053,14.8421053 Z" id="形状" fill="#0A2463" fill-rule="nonzero"></path>
            </g>
        </g>
    </g>
</svg>