<?xml version="1.0" encoding="UTF-8"?>
<svg width="20px" height="20px" viewBox="0 0 20 20" version="1.1" xmlns="http://www.w3.org/2000/svg" xmlns:xlink="http://www.w3.org/1999/xlink">
    <title>icon/20px/error-warning</title>
    <g id="页面-1" stroke="none" stroke-width="1" fill="none" fill-rule="evenodd">
        <g id="Create-Wallet-1" transform="translate(-16.000000, -433.000000)" fill="#0A2463" fill-rule="nonzero">
            <g id="icon/20px/error-warning" transform="translate(16.000000, 433.000000)">
                <g id="error-warning-line" transform="translate(3.000000, 3.000000)">
                    <path d="M7,14 C3.134005,14 0,10.86596 0,7 C0,3.134005 3.134005,0 7,0 C10.86596,0 14,3.134005 14,7 C14,10.86596 10.86596,14 7,14 Z M7,12.6 C10.09281,12.6 12.6,10.09281 12.6,7 C12.6,3.907204 10.09281,1.4 7,1.4 C3.907204,1.4 1.4,3.907204 1.4,7 C1.4,10.09281 3.907204,12.6 7,12.6 Z M6.3,9.1 L7.7,9.1 L7.7,10.5 L6.3,10.5 L6.3,9.1 Z M6.3,3.5 L7.7,3.5 L7.7,7.7 L6.3,7.7 L6.3,3.5 Z" id="形状"></path>
                </g>
            </g>
        </g>
    </g>
</svg>