<?xml version="1.0" encoding="UTF-8"?>
<svg width="18px" height="18px" viewBox="0 0 18 18" version="1.1" xmlns="http://www.w3.org/2000/svg" xmlns:xlink="http://www.w3.org/1999/xlink">
    <title>icon/18px/contacts-book</title>
    <g id="页面-1" stroke="none" stroke-width="1" fill="none" fill-rule="evenodd">
        <g id="Activities-1" transform="translate(-16.000000, -75.000000)" fill="#0A2463" fill-rule="nonzero">
            <g id="icon/18px/contacts-book" transform="translate(16.000000, 75.000000)">
                <path d="M15.6,17 L4.4,17 C3.07452,17 2,15.92552 2,14.6 L2,3.4 C2,2.07452 3.07452,1 4.4,1 L15.6,1 C16.04184,1 16.4,1.358176 16.4,1.8 L16.4,16.2 C16.4,16.64184 16.04184,17 15.6,17 Z M14.8,15.4 L14.8,13.8 L4.4,13.8 C3.958176,13.8 3.6,14.15816 3.6,14.6 C3.6,15.04184 3.958176,15.4 4.4,15.4 L14.8,15.4 Z M3.6,12.33656 C3.850224,12.24816 4.119488,12.2 4.4,12.2 L14.8,12.2 L14.8,2.6 L4.4,2.6 C3.958176,2.6 3.6,2.958176 3.6,3.4 L3.6,12.33656 Z M9.2,7.4 C8.31632,7.4 7.6,6.683656 7.6,5.8 C7.6,4.916344 8.31632,4.2 9.2,4.2 C10.08368,4.2 10.8,4.916344 10.8,5.8 C10.8,6.683656 10.08368,7.4 9.2,7.4 Z M6.8,10.6 C6.8,9.27448 7.87448,8.2 9.2,8.2 C10.52552,8.2 11.6,9.27448 11.6,10.6 L6.8,10.6 Z" id="形状"></path>
            </g>
        </g>
    </g>
</svg>