<svg t="1744279027229" class="icon" viewBox="0 0 1024 1024" version="1.1" xmlns="http://www.w3.org/2000/svg" p-id="1287" width="32" height="32"><path d="M976.0768 522.78613333a32.90453333 32.90453333 0 0 1 31.49368853 14.88213334 31.99431147 31.99431147 0 0 1 0 34.45191146 32.90453333 32.90453333 0 0 1-31.49368853 14.88213334H929.792v121.19608853a211.62666667 211.62666667 0 0 1-63.03288853 150.86933333A217.22453333 217.22453333 0 0 1 714.02382187 921.6h-35.40764374a32.5404448 32.5404448 0 0 1-32.768-32.31288853c0-17.88586667 14.70008853-32.3584 32.768-32.3584h35.40764374c82.5116448-0.91022187 148.95786667-67.26542187 148.91235626-148.73031147v-121.19608853h-122.69795626v48.28728853c0 26.8515552-10.8316448 52.6563552-30.08284374 71.68a103.31022187 103.31022187 0 0 1-72.59022293 29.6732448H387.75466667c-56.66133333 0-102.6275552-45.37457813-102.6275552-101.3532448v-48.24177813H164.11306667v121.15057813c0 82.1475552 67.44746667 148.73031147 150.64177813 148.73031147h37.59217707c18.11342187 0 32.768 14.47253333 32.768 32.31288853 0 17.88586667-14.65457813 32.3584-32.768 32.3584h-35.36213334c-119.7852448 0-217.22453333-95.2092448-218.40782186-213.44711147v-121.15057706H47.9232a32.90453333 32.90453333 0 0 1-31.49368853-14.88213334 31.99431147 31.99431147 0 0 1 0-34.45191146 32.90453333 32.90453333 0 0 1 31.49368853-14.88213334zM637.1555552 287.3571552a103.31022187 103.31022187 0 0 1 72.54471147 29.6732448c19.2512 19.0236448 30.0828448 44.78293333 30.0828448 71.68v55.61457813a11.55982187 11.55982187 0 0 1-3.4588448 8.6471104 11.8784 11.8784 0 0 1-8.7836448 3.41333334H297.32408853a11.8784 11.8784 0 0 1-8.78364373-3.41333334 11.55982187 11.55982187 0 0 1-3.4588448-8.6471104V388.66488853c0-55.97866667 45.96622187-101.3532448 102.67306667-101.35324373zM714.02382187 102.4c119.05706667 2.09351147 214.49386667 98.03093333 214.44835626 215.58613333V364.08888853c0 17.8403552-14.65457813 32.31288853-32.768 32.3128896a32.5404448 32.5404448 0 0 1-32.768-32.3128896V317.98613333a147.72906667 147.72906667 0 0 0-42.73493333-105.99537813 151.64302187 151.64302187 0 0 0-106.17742293-44.91946667h-35.40764374a32.5404448 32.5404448 0 0 1-32.768-32.31288853c0-17.88586667 14.70008853-32.3584 32.768-32.3584zM350.16248853 102.4c18.0224 0.2275552 32.5404448 14.5635552 32.768 32.31288853a32.9955552 32.9955552 0 0 1-32.768 32.3584h-35.36213333c-40.3683552 0-79.00728853 15.92888853-107.3607104 44.32782294a147.72906667 147.72906667 0 0 0-43.32657813 106.58702186V364.08888853a32.9955552 32.9955552 0 0 1-32.768 32.3128896h-0.45511147l-4.36906667-0.3640896a32.49493333 32.49493333 0 0 1-27.94382186-31.9488V317.98613333c0-118.23786667 96.4835552-214.4028448 216.17777813-215.58613333z" fill="#000000" p-id="1288"></path></svg>